<svg width="1024" height="1024" xmlns="http://www.w3.org/2000/svg" class="icon">

 <g>
  <title>background</title>
  <rect fill="none" id="canvas_background" height="402" width="582" y="-1" x="-1"/>
 </g>
 <g>
  <title>Layer 1</title>
  <path stroke="null" transform="rotate(-0.07668755203485489 507.2999572754034,416.8744506836111) " id="svg_1" fill="#333232" d="m507.3,416.874412m-225.670383,0a225.670383,205.677384 0 1 0 451.340767,0a225.670383,205.677384 0 1 0 -451.340767,0z"/>
  <path stroke="null" id="svg_2" fill="#333232" d="m511.245728,0c-282.349654,0 -511.245728,228.448603 -511.245728,510.246289s228.896073,510.246289 511.245728,510.246289s511.245728,-228.448603 511.245728,-510.246289s-228.896073,-510.246289 -511.245728,-510.246289zm355.628209,835.32987c-32.861739,-81.12916 -102.220743,-160.472458 -202.25449,-160.472458c-70.32469,0 -89.4396,44.618203 -159.76429,44.618203c-63.905716,0 -89.468002,-44.618203 -159.76429,-44.618203c-93.643176,0 -162.774959,73.021913 -195.721906,153.754215c-75.039512,-85.012701 -120.96642,-196.161351 -120.96642,-318.365338c0,-266.178481 216.143333,-481.899273 482.814785,-481.899273c266.699855,0 482.843187,215.720792 482.843187,481.899273c0,125.463893 -48.426331,239.333857 -127.186576,325.08358z"/>
 </g>
</svg>